<svg width="128" height="128" viewBox="0 0 128 128" fill="none" xmlns="http://www.w3.org/2000/svg">
<path d="M114.387 38.6021C104.52 27.7853 87.4584 22.9285 73.2279 27.9386C70.2116 29.0004 57.7883 29.0004 54.7725 27.9386C40.5416 22.9285 23.4799 27.7853 13.6131 38.6021C1.89607 51.4478 -1.75577 68.6278 0.748876 84.8214C3.93429 105.409 15.9556 119.515 38.2264 125.851C50.6623 129.389 55.451 127.492 64 127.492C72.549 127.492 77.3376 129.389 89.7735 125.851C112.044 119.515 124.066 105.409 127.251 84.8214C129.756 68.6278 126.104 51.4478 114.387 38.6021Z" fill="#E22225"/>
<path d="M44.8945 55.6551C44.8945 62.3046 39.2567 67.6948 32.3021 67.6948C25.3478 67.6948 19.71 62.3046 19.71 55.6551C19.71 49.0055 25.3478 43.615 32.3021 43.615C39.2567 43.615 44.8945 49.0055 44.8945 55.6551Z" fill="#E74739"/>
<path d="M114.387 38.6021C104.52 27.7853 87.4584 22.9285 73.2279 27.9386C70.2116 29.0004 57.7883 29.0004 54.7725 27.9386C50.0889 26.2895 45.1 25.7293 40.1603 26.0786C48.281 27.768 48.5627 37.6008 74.0171 35.7961C97.6706 34.1195 115.135 67.6948 101.677 95.342C93.318 112.514 64.787 124.135 27.335 121.734C30.6525 123.343 34.2699 124.726 38.2264 125.851C50.6627 129.389 55.451 127.492 64 127.492C72.549 127.492 77.3376 129.389 89.7739 125.851C112.044 119.515 124.066 105.409 127.251 84.821C129.756 68.6278 126.104 51.4478 114.387 38.6021Z" fill="#C51D1F"/>
<path d="M63.5387 22.7845C61.1911 17.1217 55.3718 13.7027 49.0324 13.0963C52.0827 15.9067 54.3075 18.3011 55.3333 23.2049C52.0079 21.4179 43.0248 20.1225 38.0943 23.4842C44.6558 24.1882 48.2936 25.5905 52.1094 29.7897C52.1094 29.7897 49.4381 32.1551 48.8858 34.7629C48.492 36.6233 49.0857 40.8861 49.0857 40.8861C53.1352 35.3933 62.8062 38.1955 63.2459 32.4513C63.2459 32.4513 73.2097 34.2727 77.0197 40.8575C77.7519 32.1714 73.3563 30.6299 73.3563 30.6299C77.5568 27.7347 85.4206 29.7897 89.9057 31.1205C86.9835 26.9914 80.5649 23.481 74.7068 24.2367C77.06 20.1515 81.2453 17.859 86.0995 17.4035C78.7599 14.9896 68.3359 15.0936 63.5387 22.7845Z" fill="#238735"/>
<path d="M68.3607 0.00577957C60.4174 6.00546 61.2758 20.5911 62.2139 27.5666C62.7869 27.8395 63.4973 27.9025 64.2906 27.4172C64.3154 23.1904 64.6474 16.6099 66.2896 12.203C68.6543 5.85397 72.3835 3.94056 72.3835 3.94056C72.3835 -0.320912 68.3607 0.00577957 68.3607 0.00577957Z" fill="#1F792F"/>
</svg>
