<svg width="16" height="16" viewBox="0 0 16 16" fill="none" xmlns="http://www.w3.org/2000/svg">
<path d="M14.2984 4.82527C13.065 3.47316 10.9323 2.86606 9.15348 3.49232C8.77645 3.62505 7.22354 3.62505 6.84656 3.49232C5.0677 2.86606 2.93499 3.47316 1.70163 4.82527C0.237009 6.43097 -0.219472 8.57847 0.0936096 10.6027C0.491786 13.1762 1.99445 14.9394 4.77831 15.7314C6.33279 16.1737 6.93138 15.9365 8 15.9365C9.06862 15.9365 9.6672 16.1737 11.2217 15.7314C14.0055 14.9394 15.5082 13.1762 15.9064 10.6027C16.2195 8.57847 15.763 6.43097 14.2984 4.82527Z" fill="#E22225"/>
<path d="M5.61182 6.95689C5.61182 7.78808 4.90708 8.46185 4.03776 8.46185C3.16848 8.46185 2.46375 7.78808 2.46375 6.95689C2.46375 6.1257 3.16848 5.45188 4.03776 5.45188C4.90708 5.45188 5.61182 6.1257 5.61182 6.95689Z" fill="#E74739"/>
<path d="M14.2984 4.82527C13.065 3.47316 10.9323 2.86606 9.15348 3.49232C8.77645 3.62505 7.22354 3.62505 6.84656 3.49232C6.26112 3.28619 5.6375 3.21616 5.02003 3.25983C6.03512 3.471 6.07033 4.7001 9.25214 4.47451C12.2088 4.26493 14.3919 8.46185 12.7096 11.9177C11.6648 14.0643 8.09837 15.5169 3.41687 15.2168C3.83157 15.4179 4.28374 15.5907 4.77831 15.7314C6.33284 16.1737 6.93138 15.9365 8 15.9365C9.06862 15.9365 9.6672 16.1737 11.2217 15.7314C14.0055 14.9394 15.5082 13.1762 15.9064 10.6026C16.2195 8.57847 15.763 6.43097 14.2984 4.82527Z" fill="#C51D1F"/>
<path d="M7.9424 2.84807C7.64894 2.14023 6.92153 1.71284 6.12911 1.63706C6.51039 1.98834 6.78849 2.28765 6.91671 2.90063C6.50105 2.67725 5.37815 2.51532 4.76184 2.93554C5.58202 3.02354 6.03675 3.19883 6.51373 3.72372C6.51373 3.72372 6.17982 4.0194 6.11078 4.34538C6.06155 4.57792 6.13577 5.11078 6.13577 5.11078C6.64195 4.42417 7.85082 4.77444 7.90579 4.05643C7.90579 4.05643 9.15127 4.2841 9.62751 5.10719C9.71904 4.02143 9.1696 3.82875 9.1696 3.82875C9.69465 3.46685 10.6776 3.72372 11.2383 3.89007C10.873 3.37394 10.0707 2.93514 9.3384 3.0296C9.63255 2.51895 10.1557 2.23239 10.7625 2.17545C9.84504 1.87371 8.54204 1.88672 7.9424 2.84807Z" fill="#238735"/>
<path d="M8.54514 0.000718631C7.55222 0.750679 7.65953 2.57388 7.77679 3.44582C7.84842 3.47993 7.93721 3.4878 8.03638 3.42715C8.03948 2.8988 8.08098 2.07624 8.28625 1.52537C8.58184 0.731742 9.04799 0.492566 9.04799 0.492566C9.04799 -0.0401178 8.54514 0.000718631 8.54514 0.000718631Z" fill="#1F792F"/>
</svg>
