<svg width="256" height="256" viewBox="0 0 256 256" fill="none" xmlns="http://www.w3.org/2000/svg">
<path d="M228.774 77.2043C209.04 55.5706 174.917 45.857 146.456 55.8771C140.423 58.0008 115.577 58.0008 109.545 55.8771C81.0831 45.857 46.9598 55.5706 27.2261 77.2043C3.79214 102.896 -3.51155 137.256 1.49775 169.643C7.86858 210.819 31.9111 239.03 76.4529 251.703C101.325 258.779 110.902 254.983 128 254.983C145.098 254.983 154.675 258.779 179.547 251.703C224.089 239.03 248.131 210.819 254.502 169.643C259.511 137.256 252.209 102.896 228.774 77.2043Z" fill="#E22225"/>
<path d="M89.7891 111.31C89.7891 124.609 78.5133 135.39 64.6041 135.39C50.6957 135.39 39.4199 124.609 39.4199 111.31C39.4199 98.0111 50.6957 87.23 64.6041 87.23C78.5133 87.23 89.7891 98.0111 89.7891 111.31Z" fill="#E74739"/>
<path d="M228.774 77.2043C209.04 55.5706 174.917 45.857 146.456 55.8771C140.423 58.0008 115.577 58.0008 109.545 55.8771C100.178 52.5791 90.2 51.4585 80.3206 52.1572C96.5619 55.5359 97.1253 75.2017 148.034 71.5922C195.341 68.2389 230.27 135.39 203.354 190.684C186.636 225.028 129.574 248.27 54.6699 243.469C61.3051 246.686 68.5399 249.451 76.4529 251.703C101.325 258.779 110.902 254.983 128 254.983C145.098 254.983 154.675 258.779 179.548 251.703C224.089 239.03 248.131 210.819 254.502 169.642C259.511 137.256 252.209 102.896 228.774 77.2043Z" fill="#C51D1F"/>
<path d="M127.077 45.5689C122.382 34.2435 110.744 27.4053 98.0649 26.1927C104.165 31.8133 108.615 36.6022 110.667 46.4099C104.016 42.8358 86.0495 40.2449 76.1886 46.9684C89.3115 48.3764 96.5871 51.181 104.219 59.5794C104.219 59.5794 98.8763 64.3102 97.7717 69.5259C96.9839 73.2465 98.1715 81.7723 98.1715 81.7723C106.27 70.7866 125.612 76.3909 126.492 64.9027C126.492 64.9027 146.419 68.5454 154.039 81.7149C155.504 64.3427 146.713 61.2599 146.713 61.2599C155.114 55.4694 170.841 59.5794 179.811 62.241C173.967 53.9828 161.13 46.962 149.414 48.4734C154.12 40.303 162.491 35.718 172.199 34.8069C157.52 29.9792 136.672 30.1873 127.077 45.5689Z" fill="#238735"/>
<path d="M136.721 0.0115591C120.835 12.0109 122.552 41.1822 124.428 55.1332C125.574 55.6789 126.995 55.8049 128.581 54.8344C128.631 46.3809 129.295 33.2199 132.579 24.406C137.309 11.7079 144.767 7.88111 144.767 7.88111C144.767 -0.641824 136.721 0.0115591 136.721 0.0115591Z" fill="#1F792F"/>
</svg>
