<svg width="32" height="32" viewBox="0 0 32 32" fill="none" xmlns="http://www.w3.org/2000/svg">
<path d="M28.5967 9.65054C26.13 6.94633 21.8646 5.73213 18.307 6.98464C17.5529 7.2501 14.4471 7.2501 13.6931 6.98464C10.1354 5.73213 5.86997 6.94633 3.40327 9.65054C0.474017 12.8619 -0.438943 17.1569 0.187219 21.2053C0.983573 26.3524 3.98889 29.8788 9.55661 31.4629C12.6656 32.3474 13.8628 31.8729 16 31.8729C18.1372 31.8729 19.3344 32.3474 22.4434 31.4629C28.0111 29.8788 31.0164 26.3524 31.8128 21.2053C32.4389 17.1569 31.5261 12.8619 28.5967 9.65054Z" fill="#E22225"/>
<path d="M11.2236 13.9138C11.2236 15.5762 9.81417 16.9237 8.07552 16.9237C6.33696 16.9237 4.92749 15.5762 4.92749 13.9138C4.92749 12.2514 6.33696 10.9038 8.07552 10.9038C9.81417 10.9038 11.2236 12.2514 11.2236 13.9138Z" fill="#E74739"/>
<path d="M28.5967 9.65054C26.13 6.94633 21.8646 5.73213 18.307 6.98464C17.5529 7.2501 14.4471 7.2501 13.6931 6.98464C12.5222 6.57239 11.275 6.43231 10.0401 6.51965C12.0702 6.94199 12.1407 9.40021 18.5043 8.94902C24.4177 8.52986 28.7838 16.9237 25.4193 23.8355C23.3295 28.1285 16.1967 31.0338 6.83374 30.4336C7.66313 30.8358 8.56749 31.1814 9.55661 31.4629C12.6657 32.3474 13.8628 31.8729 16 31.8729C18.1372 31.8729 19.3344 32.3474 22.4435 31.4629C28.0111 29.8788 31.0164 26.3524 31.8128 21.2053C32.4389 17.1569 31.5261 12.8619 28.5967 9.65054Z" fill="#C51D1F"/>
<path d="M15.8847 5.69614C15.2977 4.28045 13.8429 3.42569 12.2581 3.27411C13.0207 3.97669 13.5769 4.57529 13.8333 5.80126C13.002 5.3545 10.7562 5.03064 9.52356 5.87107C11.1639 6.04707 12.0734 6.39765 13.0273 7.44745C13.0273 7.44745 12.3595 8.03879 12.2214 8.69076C12.123 9.15584 12.2714 10.2216 12.2714 10.2216C13.2838 8.84835 15.7015 9.54889 15.8115 8.11286C15.8115 8.11286 18.3024 8.5682 19.2549 10.2144C19.438 8.04286 18.3391 7.65751 18.3391 7.65751C19.3892 6.9337 21.3551 7.44744 22.4764 7.78015C21.7459 6.74788 20.1412 5.87028 18.6767 6.05919C19.265 5.03789 20.3113 4.46477 21.5249 4.35089C19.69 3.74742 17.084 3.77343 15.8847 5.69614Z" fill="#238735"/>
<path d="M17.0902 0.00143726C15.1043 1.50136 15.3189 5.14776 15.5535 6.89164C15.6967 6.95986 15.8743 6.97561 16.0726 6.85429C16.0788 5.7976 16.1618 4.15247 16.5724 3.05074C17.1636 1.46348 18.0959 0.985131 18.0959 0.985131C18.0959 -0.0802357 17.0902 0.00143726 17.0902 0.00143726Z" fill="#1F792F"/>
</svg>
