<svg width="48" height="48" viewBox="0 0 48 48" fill="none" xmlns="http://www.w3.org/2000/svg">
<path d="M42.8951 14.4758C39.195 10.4195 32.7969 8.59819 27.4604 10.477C26.3294 10.8751 21.6706 10.8751 20.5397 10.477C15.2031 8.59819 8.80496 10.4195 5.1049 14.4758C0.711026 19.2929 -0.658415 25.7354 0.280829 31.808C1.47536 39.5286 5.98334 44.8182 14.3349 47.1943C18.9984 48.521 20.7941 47.8094 24 47.8094C27.2059 47.8094 29.0016 48.521 33.6651 47.1943C42.0167 44.8182 46.5246 39.5286 47.7192 31.808C48.6584 25.7354 47.2891 19.2929 42.8951 14.4758Z" fill="#E22225"/>
<path d="M16.8354 20.8707C16.8354 23.3642 14.7212 25.3856 12.1133 25.3856C9.50543 25.3856 7.39124 23.3642 7.39124 20.8707C7.39124 18.3771 9.50543 16.3556 12.1133 16.3556C14.7212 16.3556 16.8354 18.3771 16.8354 20.8707Z" fill="#E74739"/>
<path d="M42.8951 14.4758C39.195 10.4195 32.7969 8.59819 27.4605 10.477C26.3294 10.8751 21.6706 10.8751 20.5397 10.477C18.7833 9.85858 16.9125 9.64847 15.0601 9.77947C18.1054 10.413 18.211 14.1003 27.7564 13.4235C36.6265 12.7948 43.1756 25.3855 38.1289 35.7532C34.9943 42.1928 24.2951 46.5507 10.2506 45.6504C11.4947 46.2536 12.8512 46.7721 14.3349 47.1943C18.9985 48.521 20.7941 47.8094 24 47.8094C27.2059 47.8094 29.0016 48.521 33.6652 47.1943C42.0166 44.8182 46.5246 39.5286 47.7192 31.8079C48.6584 25.7354 47.2891 19.2929 42.8951 14.4758Z" fill="#C51D1F"/>
<path d="M23.8271 8.5442C22.9467 6.42068 20.7645 5.13853 18.3872 4.91117C19.5311 5.96503 20.3654 6.86294 20.75 8.70189C19.503 8.03174 16.1343 7.54595 14.2854 8.80661C16.746 9.07061 18.1101 9.59648 19.5411 11.1712C19.5411 11.1712 18.5393 12.0582 18.3322 13.0361C18.1845 13.7338 18.4072 15.3323 18.4072 15.3323C19.9257 13.2725 23.5523 14.3233 23.7173 12.1693C23.7173 12.1693 27.4537 12.8523 28.8824 15.3216C29.157 12.0643 27.5087 11.4863 27.5087 11.4863C29.0838 10.4005 32.0327 11.1712 33.7147 11.6702C32.6188 10.1218 30.2119 8.80542 28.0151 9.08879C28.8975 7.55684 30.467 6.69716 32.2873 6.52634C29.535 5.62113 25.626 5.66015 23.8271 8.5442Z" fill="#238735"/>
<path d="M25.6353 0.00215589C22.6566 2.25204 22.9785 7.72164 23.3302 10.3375C23.5451 10.4398 23.8115 10.4634 24.109 10.2814C24.1183 8.6964 24.2428 6.22871 24.8586 4.57611C25.7454 2.19523 27.1439 1.4777 27.1439 1.4777C27.1439 -0.120354 25.6353 0.00215589 25.6353 0.00215589Z" fill="#1F792F"/>
</svg>
