<svg width="512" height="512" viewBox="0 0 512 512" fill="none" xmlns="http://www.w3.org/2000/svg">
<path d="M457.548 154.409C418.08 111.141 349.834 91.714 292.911 111.754C280.846 116.002 231.153 116.002 219.09 111.754C162.166 91.714 93.9196 111.141 54.4523 154.409C7.58428 205.791 -7.02309 274.511 2.99551 339.285C15.7372 421.638 63.8223 478.061 152.906 503.406C202.649 517.558 221.804 509.966 256 509.966C290.196 509.966 309.351 517.558 359.094 503.406C448.178 478.061 496.263 421.638 509.004 339.285C519.023 274.511 504.417 205.791 457.548 154.409Z" fill="#E22225"/>
<path d="M179.578 222.62C179.578 249.218 157.027 270.779 129.208 270.779C101.391 270.779 78.8398 249.218 78.8398 222.62C78.8398 196.022 101.391 174.46 129.208 174.46C157.027 174.46 179.578 196.022 179.578 222.62Z" fill="#E74739"/>
<path d="M457.548 154.409C418.08 111.141 349.834 91.714 292.911 111.754C280.846 116.002 231.153 116.002 219.09 111.754C200.356 105.158 180.4 102.917 160.641 104.314C193.124 111.072 194.251 150.403 296.068 143.184C390.682 136.478 460.54 270.779 406.708 381.368C373.272 450.057 259.148 496.541 109.34 486.938C122.61 493.372 137.08 498.902 152.906 503.406C202.651 517.558 221.804 509.966 256 509.966C290.196 509.966 309.351 517.558 359.096 503.406C448.178 478.061 496.263 421.638 509.004 339.284C519.023 274.511 504.417 205.791 457.548 154.409Z" fill="#C51D1F"/>
<path d="M254.155 91.1378C244.764 68.4869 221.487 54.8106 196.13 52.3854C208.331 63.6266 217.23 73.2043 221.333 92.8198C208.032 85.6715 172.099 80.4898 152.377 93.9368C178.623 96.7527 193.174 102.362 208.437 119.159C208.437 119.159 197.753 128.62 195.543 139.052C193.968 146.493 196.343 163.545 196.343 163.545C212.541 141.573 251.225 152.782 252.984 129.805C252.984 129.805 292.839 137.091 308.079 163.43C311.007 128.685 293.425 122.52 293.425 122.52C310.227 110.939 341.682 119.159 359.623 124.482C347.934 107.966 322.259 93.9241 298.827 96.9467C308.24 80.6059 324.981 71.436 344.398 69.6139C315.04 59.9583 273.344 60.3745 254.155 91.1378Z" fill="#238735"/>
<path d="M273.443 0.0231183C241.669 24.0218 245.103 82.3643 248.855 110.266C251.148 111.358 253.989 111.61 257.162 109.669C257.262 92.7617 258.59 66.4397 265.158 48.812C274.617 23.4159 289.534 15.7622 289.534 15.7622C289.534 -1.28365 273.443 0.0231183 273.443 0.0231183Z" fill="#1F792F"/>
</svg>
