<svg width="64" height="64" viewBox="0 0 64 64" fill="none" xmlns="http://www.w3.org/2000/svg">
<path d="M57.1935 19.3011C52.26 13.8927 43.7292 11.4643 36.6139 13.9693C35.1058 14.5002 28.8942 14.5002 27.3862 13.9693C20.2708 11.4643 11.7399 13.8927 6.80653 19.3011C0.948035 25.7239 -0.877887 34.3139 0.374438 42.4107C1.96715 52.7047 7.97779 59.7576 19.1132 62.9257C25.3312 64.6947 27.7255 63.7458 32 63.7458C36.2745 63.7458 38.6688 64.6947 44.8868 62.9257C56.0222 59.7576 62.0328 52.7047 63.6255 42.4107C64.8779 34.3139 63.0521 25.7239 57.1935 19.3011Z" fill="#E22225"/>
<path d="M22.4473 27.8276C22.4473 31.1523 19.6283 33.8474 16.151 33.8474C12.6739 33.8474 9.85498 31.1523 9.85498 27.8276C9.85498 24.5028 12.6739 21.8075 16.151 21.8075C19.6283 21.8075 22.4473 24.5028 22.4473 27.8276Z" fill="#E74739"/>
<path d="M57.1935 19.3011C52.26 13.8927 43.7292 11.4643 36.6139 13.9693C35.1058 14.5002 28.8942 14.5002 27.3862 13.9693C25.0445 13.1448 22.55 12.8646 20.0801 13.0393C24.1405 13.884 24.2813 18.8004 37.0086 17.898C48.8353 17.0597 57.5675 33.8474 50.8385 47.671C46.659 56.2571 32.3935 62.0676 13.6675 60.8672C15.3263 61.6715 17.135 62.3628 19.1132 62.9257C25.3314 64.6947 27.7255 63.7458 32 63.7458C36.2745 63.7458 38.6688 64.6947 44.8869 62.9257C56.0222 59.7576 62.0328 52.7047 63.6255 42.4105C64.8779 34.3139 63.0521 25.7239 57.1935 19.3011Z" fill="#C51D1F"/>
<path d="M31.7693 11.3923C30.5955 8.56091 27.6859 6.85137 24.5162 6.54822C26.0413 7.95337 27.1537 9.15058 27.6666 11.6025C26.0039 10.709 21.5123 10.0613 19.0471 11.7421C22.3279 12.0941 24.1467 12.7953 26.0547 14.8949C26.0547 14.8949 24.719 16.0776 24.4429 17.3815C24.246 18.3117 24.5428 20.4431 24.5428 20.4431C26.5675 17.6967 31.403 19.0978 31.6229 16.2257C31.6229 16.2257 36.6048 17.1364 38.5098 20.4288C38.8759 16.0857 36.6781 15.315 36.6781 15.315C38.7784 13.8674 42.7102 14.8949 44.9528 15.5603C43.4917 13.4958 40.2824 11.7406 37.3533 12.1184C38.53 10.0758 40.6226 8.92954 43.0497 8.70178C39.3799 7.49484 34.1679 7.54686 31.7693 11.3923Z" fill="#238735"/>
<path d="M34.1803 0.00287452C30.2087 3.00271 30.6379 10.2955 31.1069 13.7833C31.3934 13.9197 31.7486 13.9512 32.1453 13.7086C32.1577 11.5952 32.3237 8.30495 33.1448 6.10148C34.3271 2.92697 36.1917 1.97026 36.1917 1.97026C36.1917 -0.160471 34.1803 0.00287452 34.1803 0.00287452Z" fill="#1F792F"/>
</svg>
