<?xml version="1.0" standalone="no"?>
<!DOCTYPE svg PUBLIC "-//W3C//DTD SVG 20010904//EN"
 "http://www.w3.org/TR/2001/REC-SVG-20010904/DTD/svg10.dtd">
<svg version="1.0" xmlns="http://www.w3.org/2000/svg"
 width="700.000000pt" height="700.000000pt" viewBox="0 0 700.000000 700.000000"
 preserveAspectRatio="xMidYMid meet">
<metadata>
Created by potrace 1.14, written by Peter Selinger 2001-2017
</metadata>
<g transform="translate(0.000000,700.000000) scale(0.100000,-0.100000)"
fill="#000000" stroke="none">
<path d="M3678 6946 c-65 -63 -121 -142 -167 -236 -39 -77 -96 -263 -106 -340
-4 -30 -8 -57 -10 -60 -8 -13 -22 -197 -24 -305 l-1 -69 -53 55 c-102 108
-260 202 -413 248 -71 21 -97 27 -174 38 l-45 6 77 -79 c146 -149 209 -256
256 -436 l10 -36 -45 19 c-57 24 -188 57 -278 68 -70 10 -310 8 -353 -3 -97
-23 -153 -40 -192 -58 -80 -38 -80 -41 6 -54 143 -21 160 -24 225 -43 97 -29
209 -77 209 -90 0 -4 -26 -4 -57 1 -61 8 -404 4 -463 -7 -325 -56 -497 -109
-730 -225 -127 -62 -284 -160 -347 -215 -6 -5 -26 -21 -45 -34 -56 -42 -260
-251 -332 -341 -186 -233 -339 -508 -446 -802 -51 -139 -114 -380 -134 -513
-4 -22 -11 -67 -16 -100 -24 -156 -34 -577 -17 -740 4 -38 10 -92 13 -120 24
-235 103 -557 194 -785 185 -465 471 -828 880 -1116 364 -257 880 -462 1376
-545 105 -18 172 -22 359 -23 127 -1 295 3 375 8 181 12 392 12 580 0 213 -13
571 -11 670 4 494 76 1027 274 1380 512 331 223 600 507 782 824 93 163 193
402 249 597 33 115 84 354 94 444 4 33 9 69 11 79 19 104 26 564 12 716 -18
189 -36 293 -83 480 -34 136 -110 367 -126 385 -5 5 -9 15 -9 22 0 23 -116
257 -181 364 -167 277 -381 526 -584 681 -276 210 -620 362 -955 422 -47 9
-98 18 -115 21 -16 3 -106 8 -200 12 -137 5 -177 9 -207 24 -81 41 -210 71
-323 75 -82 3 -109 7 -107 16 2 7 22 37 45 67 92 120 255 222 415 261 42 10
91 22 107 26 29 7 29 7 -20 21 -187 52 -375 68 -543 47 -238 -29 -370 -87
-519 -228 -29 -27 -53 -44 -53 -38 0 10 16 139 25 197 37 242 121 447 245 597
40 48 113 116 149 137 11 7 11 18 2 61 -20 93 -75 144 -166 155 -50 6 -50 6
-107 -49z"/>
</g>
</svg>
