{"accessors" : [{"bufferView" : 0, "byteOffset" : 0, "componentType" : 5123, "count" : 11520, "type" : "SCALAR", "max" : [9599], "min" : [0]}, {"bufferView" : 1, "byteOffset" : 0, "componentType" : 5126, "count" : 9600, "type" : "VEC3", "max" : [1.7178210020065308, 1.7178210020065308, 1.4253040552139282], "min" : [-1.7178210020065308, -1.7178210020065308, -1.2717649936676025], "name" : "POSITION"}, {"bufferView" : 1, "byteOffset" : 12, "componentType" : 5126, "count" : 9600, "type" : "VEC3", "max" : [0.9990555047988892, 0.9990555047988892, 1.0000044107437134], "min" : [-0.9990555047988892, -0.9990555047988892, -1.0000044107437134], "name" : "NORMAL"}, {"bufferView" : 1, "byteOffset" : 24, "componentType" : 5126, "count" : 9600, "type" : "VEC2", "max" : [0.8422009944915771, -0.45721301436424255], "min" : [0.04061000049114227, -0.9837570190429688], "name" : "TEXCOORD_0"}, {"bufferView" : 0, "byteOffset" : 23040, "componentType" : 5123, "count" : 10368, "type" : "SCALAR", "max" : [8639], "min" : [0]}, {"bufferView" : 2, "byteOffset" : 0, "componentType" : 5126, "count" : 8640, "type" : "VEC3", "max" : [1.02121102809906, 0.6637539863586426, 1.1884249448776245], "min" : [-0.6583889722824097, -0.9387760162353516, -0.02088800072669983], "name" : "POSITION"}, {"bufferView" : 2, "byteOffset" : 12, "componentType" : 5126, "count" : 8640, "type" : "VEC3", "max" : [1.0000044107437134, 1.0000044107437134, 0.9999878406524658], "min" : [-1.0000044107437134, -1.0000044107437134, -0.9959556460380554], "name" : "NORMAL"}, {"bufferView" : 2, "byteOffset" : 24, "componentType" : 5126, "count" : 8640, "type" : "VEC2", "max" : [0.9848960041999817, -0.0047900001518428326], "min" : [0.002595999976620078, -0.6356340050697327], "name" : "TEXCOORD_0"}], "asset" : {"generator" : "Aspose.3D 23.2", "version" : "2.0"}, "buffers" : [{"uri" : "data:application/octet-stream;base64,", "byteLength" : 744204}], "bufferViews" : [{"buffer" : 0, "byteOffset" : 0, "byteLength" : 43776, "target" : 34963}, {"buffer" : 0, "byteOffset" : 43780, "byteLength" : 368640, "byteStride" : 32, "target" : 34962}, {"buffer" : 0, "byteOffset" : 412424, "byteLength" : 331776, "byteStride" : 32, "target" : 34962}], "cameras" : [{"perspective" : {"aspectRatio" : 1.3333333333333333, "yfov" : 0.5033799390654005, "zfar" : 99.999994, "znear" : 0.1}, "type" : "perspective", "name" : "Camera"}], "images" : [{"uri" : "Tomato_texture.tga"}], "materials" : [{"name" : "Material__Tomato_texture_tga", "pbrMetallicRoughness" : {"baseColorFactor" : [0.37570000000000003, 0.019100000000000002, 0.004700000000000001, 1], "baseColorTexture" : {"index" : 0, "texCoord" : 0}, "metallicFactor" : 0, "roughnessFactor" : 0}, "emissiveFactor" : [0.37570000000000003, 0.019100000000000002, 0.004700000000000001], "alphaMode" : "OPAQUE", "doubleSided" : false}, {"name" : "Material_001__Tomato_texture_tga", "pbrMetallicRoughness" : {"baseColorFactor" : [0.014200000000000003, 0.16790000000000005, 0, 1], "baseColorTexture" : {"index" : 0, "texCoord" : 0}, "metallicFactor" : 0, "roughnessFactor" : 0}, "emissiveFactor" : [0.014200000000000003, 0.16790000000000005, 0], "alphaMode" : "OPAQUE", "doubleSided" : false}], "meshes" : [{"primitives" : [{"attributes" : {"POSITION" : 1, "NORMAL" : 2, "TEXCOORD_0" : 3}, "indices" : 0, "material" : 0, "mode" : 4}], "name" : "Cube"}, {"primitives" : [{"attributes" : {"POSITION" : 5, "NORMAL" : 6, "TEXCOORD_0" : 7}, "indices" : 4, "material" : 1, "mode" : 4}], "name" : "Cylinder"}], "nodes" : [{"matrix" : [1.413308143615723, 0, 0, 0, 0, 1.413308143615723, 0, 0, 0, 0, 1.413308143615723, 0, -1.7652195100000008E-07, -2.307605770000001E-07, 0.9826251268386841, 1], "mesh" : 1, "name" : "Cylinder"}, {"children" : [0], "matrix" : [1, 0, 0, 0, 0, -1.629184226912785E-07, -0.9999999999999867, 0, 0, 0.9999999999999867, -1.629184226912785E-07, 0, 0, 1.267184615135193, 0, 1], "mesh" : 0, "name" : "Cube"}, {"camera" : 0, "matrix" : [-0.5061244882506255, -0.5720472393984196, -0.6454451808268371, 0, -0.3529872528586291, 0.8202203844452204, -0.45015335544984236, 0, 0.7869165600704014, 2.845896547225721E-07, -0.6170592265482461, 0, 2.54078221321106, 4.893558979034424, 3.3982291221618652, 1], "name" : "Camera"}], "samplers" : [{"magFilter" : 9729, "minFilter" : 9729, "wrapS" : 10497, "wrapT" : 10497}], "scene" : 0, "scenes" : [{"nodes" : [1, 2]}], "textures" : [{"sampler" : 0, "source" : 0, "name" : "Tomato_texture_tga"}]}